/* XPM */
static char *_e53870ecea94643fd300e8b965d4286DEkkzuynbSIEkWV9[] = {
/* columns rows colors chars-per-pixel */
"16 16 41 1 ",
"  c None",
". c black",
"X c #642036",
"o c #652036",
"O c #662136",
"+ c #7A2538",
"@ c #7F253B",
"# c #94282F",
"$ c #83263B",
"% c #88273D",
"& c #89283C",
"* c #952C31",
"= c #942D32",
"- c #A23133",
"; c #A93037",
": c #AE3535",
"> c #B63231",
", c #B73734",
"< c #B7353F",
"1 c #B8353E",
"2 c #CA3C3B",
"3 c #DD3E35",
"4 c #DB413C",
"5 c #DA413D",
"6 c #DC413C",
"7 c #E44035",
"8 c #E64438",
"9 c #E84438",
"0 c #E14A3E",
"q c #AF3142",
"w c #AD3044",
"e c #B13143",
"r c #C13742",
"t c #BB5C50",
"y c #E75547",
"u c #E85344",
"i c #E76352",
"p c #E96050",
"a c #EC7B66",
"s c #EE7F69",
"d c #F7A588",
/* pixels */
"                ",
"                ",
"                ",
"     ..  ..     ",
"    .,>..%&.    ",
"   .*yst;rwX.   ",
"   .#ida76eX.   ",
"   .*0py86qX.   ",
"    .-695e+.    ",
"     .>21$.     ",
"      .&$.      ",
"       ..       ",
"                ",
"                ",
"                ",
"                "
};
