/* XPM */
static char *result[] = {
/* columns rows colors chars-per-pixel */
"7 7 5 1 ",
"  c #14182E",
". c #0095E9",
"X c #2CE8F5",
"o c #F5FFE8",
"O c None",
/* pixels */
"OO   OO",
"O XXX O",
" Xo..X ",
" X...X ",
" X...X ",
"O XXX O",
"OO   OO"
};
