/* XPM */
static char *_152223c99a44752eb95a962b1ad0bb6V5Y4ETYWaCdN1UzS[] = {
/* columns rows colors chars-per-pixel */
"48 54 8 1 ",
"  c None",
". c #181425",
"X c #52333F",
"o c #2F5753",
"O c #3B7D4F",
"+ c #8F4D57",
"@ c #BD6A62",
"# c #63AB3F",
/* pixels */
"                     ......                     ",
"                 ...oOOOOOOo...                 ",
"               .oOOOOOOOOOOOOOOo.               ",
"             .oOOOOOO######OOOOOOo.             ",
"           .OOOOOO############OOOOOO.           ",
"          .OOOOO################OOOOO.          ",
"         .OOOOO##################OOOOO.         ",
"        .OOOOO####################OOOOO.        ",
"       .OOOOOO####################OOOOOO.       ",
"      .oOOOOOO####################OOOOOOo.      ",
"     .oOOOOOOOO##################OOOOOOOOo.     ",
"     .OOOOOOOOOO################OOOOOOOOOO.     ",
"    .oOOOOOOOOOOOO############OOOOOOOOOOOOo.    ",
"    oOOOOOOOOOOOOOOOO######OOOOOOOOOOOOOOOOo    ",
"   .oOOOOOOOOOOOOOOOOOOOOOOOOOOOOOOOOOOOOOOo.   ",
"   oOOOOOOOOOOOOOOOOOOOOOOOOOOOOOOOOOOOOOOOOo   ",
"  .oOOOOOOOOOOOOOOOOOOOOOOOOOOOOOOOOOOOOOOOOo.  ",
"  .OOOOOOOOOOOOOOOOOOOOOOOOOOOOOOOOOOOOOOOOOO.  ",
" .oOOOOOOOOOOOOOOOOOOOOOOOOOOOOOOOOOOOOOOOOOOo. ",
" .oOOOOOOOOOOOOOOOOOOOOOOOOOOOOOOOOOOOOOOOOOOo. ",
" .oOOOOOOOOOOOOOOOOOOOOOOOOOOOOOOOOOOOOOOOOOOo. ",
" oOOOOOOOOOOOOOOOOOOOOOOOOOOOOOOOOOOOOOOOOOOOOo ",
".oOOOOOOOOOOOOOOOOOOOOOOOOOOOOOOOOOOOOOOOOOOOOo.",
".oOOOOOOOOOOOOOOOOOOOOOOOOOOOOOOOOOOOOOOOOOOOOo.",
".oOOOOOOOOOOOOOOOOOOOOOOOOOOOOOOOOOOOOOOOOOOOOo.",
".oOOOOOOOOOOOOOOOOOOOOOOOOOOOOOOOOOOOOOOOOOOOOo.",
".oOOOOOOOOOOOOOOOOOOOOOOOOOOOOOOOOOOOOOOOOOOOOo.",
".oOOOOOOOOOOOOOOOOOOOOOOOOOOOOOOOOOOOOOOOOOOOOo.",
" oOOOOOOOOOOOOOOOOOOOOOOOOOOOOOOOOOOOOOOOOOOOOo ",
" .oOOOOOOOOOOOOOOOOOOOOOOOOOOOOOOOOOOOOOOOOOOo. ",
" .oOOOOOOOOOOOOOOOOOOOOOOOOOOOOOOOOOOOOOOOOOOo. ",
" .ooOOOOOOOOOOOOOOOOOOOOOOOOOOOOOOOOOOOOOOOOoo. ",
"  .ooOOOOOOOOOOOOOOOOOooooOOOOOOOOOOOOOOOOOoo.  ",
"  .ooooOOOOOOOOOOOOooooooooooOOOOOOOOOOOOoooo.  ",
"  .ooooooOOOOOOOOooooooooooooooOOOOOOOOoooooo.  ",
"   .oooooooOOOOooooooooooooooooooOOOOooooooo.   ",
"   .oooooooooooooooooooooooooooooooooooooooo.   ",
"    .oooooooooooooooooooooooooooooooooooooo.    ",
"    .oooooooooooooooooooooooooooooooooooooo.    ",
"     .oooooooooooooooooooooooooooooooooooo.     ",
"      .oooooooooooooooooooooooooooooooooo.      ",
"       .oooooooooooooooooooooooooooooooo.       ",
"        ..oooooooooooooooooooooooooooo..        ",
"          ..oooooooooooooooooooooooo..          ",
"             ...oooooooooooooooo...             ",
"                 ....oooooo....                 ",
"                .X+XXX....XXX+X.                ",
"               .+@++XX+XX+XX++@+.               ",
"               .X++XXX@++@XXX++X.               ",
"               .XXX..X+@@+X..XXX.               ",
"                ...  .+@@+.  ...                ",
"                     .X++X.                     ",
"                      .XX.                      ",
"                       ..                       "
};
